<svg version="1.0" xmlns="http://www.w3.org/2000/svg" width="1549.333" height="1706.667" viewBox="0 0 1162 1280"><path d="M721 3c-3.6 1.7-10.3 4.7-15 6.7-10.3 4.2-17.3 8.6-20.1 12.4-1.1 1.6-2.5 5.4-3.1 8.6-3.2 17.3-7 26.5-19.8 48.8-8.4 14.7-12.8 23.8-14.4 29.9-.8 3-2.8 8.6-4.6 12.5-4.4 10.1-13.2 33.1-16.5 42.9-2.3 7.1-4.2 10.3-12.7 21.5C523.6 306.5 449.9 446 400 592.5c-14.5 42.8-25.9 82.6-42.5 148-13.5 53.3-13.3 52.5-15.3 52.5-4 0-21.1-10-37.7-22.1-9.9-7.2-20.9-14.7-24.4-16.7-21.3-11.9-44.7-17.5-74.1-17.6-15.7-.1-23.4 1-40.6 5.4-34.4 9-64.8 27.3-92.5 55.6-38.1 39.1-62.8 91-71.1 149.4-1.6 11.8-1.6 55.1.2 73.5 9.5 102.4 62.5 191.6 138.5 233 62.8 34.2 149.1 35.3 233 2.8 12.2-4.7 39.2-17.9 51.2-24.9 46.7-27.3 89.3-66 113.5-102.9 20.1-30.6 34.7-68.4 40.3-104.5 2.2-14.5 3.1-43 1.6-57.1-6.2-59.9-37.3-107.8-88.3-136.1-29.3-16.3-57-23.6-92.7-24.5l-20.4-.6.6-9.6c.7-10.6 13.4-81.3 19.8-109.4 16.8-74.4 63.1-194 110.6-285.7 27-52.1 55.1-99.4 91.3-153.7 6.8-10.2 10.3-14 8.5-9.6-.9 2.5-4.2 36.1-5 51.3-1.3 24.9 2.5 59.9 9.6 88.3C631.9 448 670.9 512 733.2 572.5c20.8 20.3 35.3 33.2 54.2 48.4l13.9 11.2-6.4-.8c-9.3-1.2-33.2-.8-41.9.6-19 3.2-41.8 10.5-58.1 18.7-31.4 15.7-61.9 46.1-77.4 77.4-29.1 58.3-26.3 135.1 7.4 205.5 32.5 67.8 80.5 120.9 138.6 153.3 41.5 23.1 85.5 33.9 127.8 31.1 73.6-4.8 136.1-29.3 183.9-72.2 36.3-32.6 66.6-92.9 79.3-157.9 11.9-61 9.3-114.7-8-167.3-20.9-63.6-61.8-110.4-115-131.9-17.4-7-40.7-11.4-55-10.2-19.4 1.5-35.5 7.5-79.5 29.8-16.8 8.5-33.7 16.5-37.6 17.8l-7.2 2.4-19.3-12.1c-24.6-15.4-43.4-28.2-59.1-40.3-13.9-10.7-46.8-42.9-59.7-58.5-46.2-55.8-72.1-110.4-82.2-173.3-2.6-16.4-3.6-52.3-2-71.2 2.2-25.5 5.6-44.9 12.3-71.5l4.1-16 10.5-13c13.5-16.7 33.8-40.2 37.7-43.6 2.2-2 4.5-2.9 8.6-3.3 7.2-.8 16.8-5.6 21-10.4 4.1-4.6 10.2-17.7 12.4-26.2 2.2-8.9 2.9-10.1 8-13.4 7.9-4.9 9.5-7.7 9.5-16 0-4 .9-12.1 2-18.1 3.4-18.4 2.5-26.1-3.6-33.4-4-4.8-9.8-7.4-17.9-7.8-6.3-.4-7.7-.1-13.5 2.7z"/></svg>